<svg width="82" height="83" viewBox="0 0 82 83" fill="none" xmlns="http://www.w3.org/2000/svg">
<path d="M82 0H0V83H82V0Z" fill="#376130"/>
<path d="M46.2969 18.0025C47.3587 18.0024 48.402 18.2541 49.3236 18.7328C50.2452 19.2114 51.0131 19.9003 51.551 20.7312L53.7556 24.1409H59.3646C61.6986 24.1409 63.937 24.9823 65.5876 26.4801C67.2383 27.9779 68.166 30.0095 68.1667 32.128V55.4822C68.1667 56.5314 67.939 57.5703 67.4967 58.5397C67.0543 59.509 66.4059 60.3898 65.5886 61.1317C64.7713 61.8736 63.8009 62.4621 62.733 62.8636C61.6651 63.2651 60.5205 63.4718 59.3646 63.4718H22.8021C20.4676 63.4718 18.2288 62.63 16.5781 61.1317C14.9274 59.6334 14 57.6012 14 55.4822V32.128C14 30.0091 14.9274 27.9769 16.5781 26.4786C18.2288 24.9802 20.4676 24.1385 22.8021 24.1385H28.4354L30.8052 20.6378C31.3501 19.832 32.1134 19.1664 33.0224 18.7046C33.9313 18.2429 34.9555 18.0003 35.9971 18L46.2969 18.0025ZM46.2969 21.69H35.9971C35.7007 21.6902 35.408 21.7493 35.1394 21.8631C34.8708 21.9769 34.633 22.1427 34.4425 22.3488L34.2665 22.57L31.3063 26.9459C31.1247 27.2146 30.8703 27.4366 30.5673 27.5907C30.2644 27.7448 29.9229 27.8258 29.5756 27.826H22.8048C22.1822 27.8256 21.5655 27.9367 20.9902 28.1527C20.4149 28.3688 19.892 28.6856 19.4516 29.0851C19.0113 29.4847 18.6619 29.959 18.4235 30.4811C18.1852 31.0033 18.0625 31.5629 18.0625 32.128V55.4822C18.0625 57.857 20.1858 59.7843 22.8021 59.7843H59.3646C60.6216 59.7843 61.8271 59.331 62.716 58.5242C63.6048 57.7174 64.1042 56.6232 64.1042 55.4822V32.128C64.1042 30.9871 63.6048 29.8928 62.716 29.086C61.8271 28.2792 60.6216 27.826 59.3646 27.826H52.5938C52.2397 27.8261 51.8917 27.7423 51.5843 27.5827C51.2769 27.4232 51.0209 27.1935 50.8415 26.9164L48.0465 22.5971C47.8673 22.3204 47.6116 22.0909 47.3048 21.9313C46.9979 21.7718 46.6505 21.6878 46.2969 21.6875M41.0833 31.5135C44.3157 31.5135 47.4156 32.679 49.7012 34.7536C51.9868 36.8282 53.2708 39.642 53.2708 42.576C53.2708 45.5099 51.9868 48.3237 49.7012 50.3983C47.4156 52.4729 44.3157 53.6385 41.0833 53.6385C37.851 53.6385 34.7511 52.4729 32.4655 50.3983C30.1799 48.3237 28.8958 45.5099 28.8958 42.576C28.8958 39.642 30.1799 36.8282 32.4655 34.7536C34.7511 32.679 37.851 31.5135 41.0833 31.5135ZM41.0833 35.201C40.0163 35.201 38.9598 35.3917 37.974 35.7623C36.9883 36.133 36.0926 36.6762 35.3381 37.361C34.5836 38.0459 33.9851 38.8589 33.5768 39.7537C33.1685 40.6484 32.9583 41.6075 32.9583 42.576C32.9583 43.5445 33.1685 44.5035 33.5768 45.3982C33.9851 46.293 34.5836 47.106 35.3381 47.7909C36.0926 48.4757 36.9883 49.0189 37.974 49.3896C38.9598 49.7602 40.0163 49.951 41.0833 49.951C43.2382 49.951 45.3048 49.174 46.8286 47.7909C48.3523 46.4078 49.2083 44.5319 49.2083 42.576C49.2083 40.62 48.3523 38.7441 46.8286 37.361C45.3048 35.978 43.2382 35.201 41.0833 35.201Z" fill="#F8F8F8"/>
</svg>
