<?xml version="1.0" encoding="UTF-8"?>
<svg id="Layer_2" data-name="Layer 2" xmlns="http://www.w3.org/2000/svg" viewBox="0 0 29.72 45.18">
  <defs>
    <style>
      .cls-1 {
        fill: #4d6d5c;
        stroke-width: 0px;
      }
    </style>
  </defs>
  <g id="Layer_1-2" data-name="Layer 1">
    <path class="cls-1" d="m29.71,8.2c-.05-.84-.68-1.7-1.78-1.57-1,.11-1.43.91-1.42,1.64-1.36.44-2.68,1.22-3.92,2.32.25-.75.39-1.54.41-2.3.59-.22.79-.83.72-1.32-.08-.56-.52-1.13-1.32-1.04-.75.08-1.04.67-1.06,1.15-.02.52.26,1.09.84,1.26-.02.36-.05.74-.1,1.1-.12.84-.42,1.65-.69,2.34-.74.81-1.43,1.73-2.06,2.72-.58.93-.99,2.04-1.43,3.22-.78,2.12-1.59,4.31-3.46,5.29.86-2.31,1.08-4.68.75-7.85.02-.04.02-.09.02-.14-.12-1.59,1.04-2.64,2.16-3.65.23.19.53.27.87.23.77-.08,1.09-.72,1.06-1.28-.03-.63-.51-1.26-1.33-1.17-.39.04-.7.24-.88.54-.19.31-.22.72-.11,1.09-.58.44-1.51,1.26-2.04,2.37-.15-1.11-.3-2.47-.33-3.84.01-.02.02-.04.03-.07.09-.6.5-1.04.92-1.43.16-.14.34-.28.51-.4h.01c.24.2.54.29.9.25.77-.08,1.09-.72,1.06-1.28-.03-.63-.5-1.26-1.33-1.17-.48.05-.74.31-.87.52-.19.3-.24.69-.14,1.06-.29.22-.56.48-.81.72-.1.09-.19.19-.27.29,0-.12,0-.25.02-.37.11-1.51.66-2.76,1.45-4.15.19.05.38.06.6.03,1.04-.11,1.46-.97,1.42-1.72-.05-.84-.68-1.69-1.78-1.57-.68.08-1.18.48-1.36,1.12-.18.65.02,1.37.48,1.79-1.75,2.62-1.73,5.78-1.47,8.53.04.39.08.77.13,1.15-.57-.99-1.37-1.94-2.32-2.71-.83-.94-1.06-2.16-1.2-3.24.92-.2,1.28-1.01,1.23-1.72-.06-.8-.64-1.66-1.78-1.54-1,.11-1.39.88-1.42,1.52-.03.7.35,1.5,1.14,1.72.04.73.21,1.52.47,2.2-.82-.44-1.65-.71-2.44-.79-.08-.82-.7-1.6-1.77-1.48-1.04.11-1.46.97-1.42,1.72.05.84.68,1.7,1.79,1.57.64-.07,1.12-.44,1.32-1.02,3.28.7,5.86,3.2,6.73,6.53.01.05.04.1.08.13.09.7.18,1.45.2,2.21.1,2.46-.82,4.83-1.62,6.62-.77,1.72-1.78,3.35-2.75,4.92-.71,1.15-1.44,2.34-2.08,3.56-.09-.78-.32-1.66-.71-2.67,0-.02.01-.04.01-.07-.02-.48.1-.93.22-1.39.05-.2.11-.41.15-.62.05,0,.11,0,.16,0,.77-.08,1.09-.72,1.06-1.28-.03-.63-.5-1.26-1.33-1.17-.53.06-.91.39-1.03.89-.12.5.06,1.03.43,1.33-.12.29-.21.62-.26.96-.18-.4-.37-.78-.54-1.15,0-.02,0-.06,0-.1-.96-2.76.49-5.28,1.9-7.17.21.12.44.17.72.14.77-.09,1.09-.72,1.06-1.28-.03-.63-.5-1.26-1.33-1.17-.42.05-.75.27-.93.62-.18.36-.17.82.02,1.2-1.47,1.66-2.33,3.69-2.38,5.58-1.04-2.87-1.11-5.78-.2-8.46.08,0,.16,0,.24,0,1.04-.11,1.46-.97,1.42-1.72-.05-.84-.68-1.7-1.79-1.57-.91.1-1.33.77-1.41,1.36-.09.64.18,1.43.85,1.77-.37.87-.62,1.9-.73,3-.01-.02-.02-.04-.04-.06l-.07-.12c-.26-.43-.54-.92-.9-1.32.37-.48.43-1.19.16-1.79-.29-.65-.88-.99-1.62-.91-1.04.11-1.46.97-1.42,1.72.05.84.68,1.7,1.79,1.57.19-.02.37-.07.54-.15.09.11.17.23.26.34.15.2.31.4.45.61.34.52.61,1.08.79,1.67.02,1.02.16,1.97.39,2.76.19.66.46,1.31.71,1.88-.59-.48-1.32-.9-2.28-1-.12-.52-.55-1.02-1.29-.94-.77.08-1.09.72-1.06,1.28.03.63.5,1.26,1.33,1.17.51-.06.88-.36,1.01-.83.62.16,1.15.31,1.66.63.44.27.82.66,1.18,1.04l.15.16.07.15c1.02,2.12,2.07,4.3,1.88,6.58-.02.05-.05.11-.08.16-.04.09-.09.18-.12.27-.43,1.03-.74,2.12-.92,3.25-.25-.52-.6-1.09-1.07-1.71.36-.49.42-1.19.14-1.79-.29-.63-.87-.97-1.61-.89-1.04.11-1.46.97-1.42,1.72.05.84.68,1.7,1.78,1.57.23-.03.45-.09.64-.2.05.09.1.18.15.27.5.9.97,1.76,1.2,2.77,0,.02.01.04.02.05-.06,1.81.21,3.58.81,5.26.04.12.14.19.26.19.1,0,.19-.05.25-.13.05-.08.07-.17.04-.26-.23-.71-.41-1.44-.52-2.17v-.02s0-.04,0-.04c-.05-1.85.5-3.39,1.64-4.56,1.24.12,2.31.65,3.44,1.22.27.14.54.27.82.4.37.33.66.73.87,1.2.07.16.12.33.18.52v.03c-.39.28-.57.83-.42,1.35.12.46.53.96,1.28.88.77-.08,1.09-.72,1.06-1.28-.03-.59-.45-1.18-1.17-1.18-.01,0-.02,0-.03,0-.09-.33-.23-.67-.42-.98.34.11.63.19.91.25.31.06.63.09.94.09.93,0,1.74-.27,2.3-.77.26.12.55.17.88.14,1.04-.11,1.46-.97,1.42-1.72-.05-.84-.67-1.7-1.78-1.57-.62.07-1.08.41-1.3.95-.22.56-.14,1.24.21,1.72-.48.42-1.03.62-1.66.62-1.1,0-2.33-.63-3.53-1.23-1.1-.56-2.24-1.14-3.32-1.24.4-.3.84-.57,1.32-.8,1.2-.56,2.55-.77,3.87-.97.75-.12,1.53-.23,2.27-.42,1.26-.31,2.52-.99,3.65-1.96.02,0,.04.02.07.02.63.14,1.29.21,1.93.21.7,0,1.36-.09,1.96-.26.25.6.78.96,1.43.96.07,0,.14,0,.21-.01,1.04-.11,1.46-.97,1.42-1.72-.05-.84-.67-1.7-1.79-1.57-.97.11-1.4.85-1.42,1.57-1.19.31-2.19.39-3.22.26,1.05-1.04,1.86-2.27,2.36-3.57h.02s.06,0,.09,0c1.04-.11,1.46-.97,1.42-1.72-.05-.84-.68-1.7-1.79-1.57-.95.1-1.35.8-1.42,1.42-.07.66.23,1.45.93,1.76-.81,1.77-1.98,3.18-3.58,4.32-1.24.89-2.65,1.24-4.1,1.51,1.05-1.23,1.25-3.27,1.29-4.06.97-.15,1.37-.98,1.33-1.7-.05-.84-.68-1.7-1.79-1.57-1.02.11-1.4.9-1.42,1.55-.02.7.37,1.49,1.16,1.7-.04.22-.08.44-.11.65-.24,1.43-.47,2.79-1.71,3.66-.54.09-1.16.21-1.76.35-.09.02-.17.05-.26.07.24-.45.36-.96.35-1.47.55-.26.72-.86.63-1.34-.1-.54-.54-1.08-1.31-.99-.76.08-1.08.69-1.06,1.25.02.54.37,1.1,1,1.19-.01.16-.03.32-.05.47-.08.42-.27.83-.61,1.26-1.8.75-3.11,2.03-3.77,3.66.14-2.19.79-4.38,1.94-6.52.65-1.21,1.38-2.39,2.08-3.54,1.11-1.81,2.25-3.67,3.12-5.67,1.18-.29,2.13-1.06,2.91-2.35.02,0,.05,0,.08-.01.1-.03.2-.05.29-.05.45,0,.89.33,1.25.62-.2.37-.19.86.02,1.25.23.43.65.66,1.17.6.77-.08,1.09-.72,1.06-1.28-.03-.63-.5-1.26-1.33-1.17-.16.02-.3.06-.43.13-.33-.31-.93-.75-1.63-.75-.04,0-.08,0-.12,0,.41-.82.73-1.69,1.04-2.54.08-.21.15-.42.23-.63.5-.65.99-1.11,1.57-1.47h.01c.92,0,1.47.72,1.99,1.54-.37.49-.44,1.2-.16,1.8.29.64.88.98,1.62.9,1.04-.11,1.46-.97,1.42-1.72-.05-.84-.68-1.7-1.78-1.57-.16.02-.31.06-.46.12-.32-.59-.88-1.27-1.58-1.56.55-.17,1.11-.22,1.69-.28.13-.01.25-.02.38-.04.18.46.59.74,1.08.74.05,0,.1,0,.15,0,.77-.08,1.09-.72,1.06-1.28-.03-.63-.5-1.26-1.33-1.17-.65.07-.96.52-1.04.96-1.34-.05-2.75.43-3.85,1.29,1.59-3.11,4.1-5.44,7.29-6.77.28.52.77.81,1.36.81h0c.07,0,.14,0,.21-.01,1.04-.11,1.46-.97,1.42-1.72Z"/>
  </g>
</svg>