<?xml version="1.0" encoding="UTF-8"?>
<svg id="Layer_2" data-name="Layer 2" xmlns="http://www.w3.org/2000/svg" viewBox="0 0 218.73 95.86">
  <defs>
    <style>
      .cls-1 {
        fill: #4d6d5c;
        stroke-width: 0px;
      }
    </style>
  </defs>
  <g id="Layer_1-2" data-name="Layer 1">
    <g>
      <g>
        <path class="cls-1" d="m49.15,95.1c-2.78-6.06-7.11-11.23-10.39-17.02-.04-.07-.08-.15-.12-.22.96-4.62,4.71-10.69,3.07-15.38-.23-.66-1.05-1.14-1.7-.69-2.93,2.01-3.96,6.69-4.22,10.71-1.23-2.42-2.4-4.86-3.55-7.32.07-.07.14-.14.19-.24,1.95-4.01,5.23-8.05,4.85-12.74-.05-.55-.48-1.22-1.13-1.13-2.34.31-3.47,2.98-4.34,4.88-.65,1.42-1.3,2.99-1.74,4.59-.27-.58-.54-1.16-.82-1.74-1-2.13-1.97-4.28-2.93-6.45,0-.01.02-.02.03-.03,2.52-4.35,4.85-9.67,4.67-14.77-.02-.58-.5-1.19-1.14-1.14-2.57.21-3.42,3.33-4.03,5.4-.5,1.69-1.19,3.89-1.5,5.99-1.19-2.81-2.32-5.65-3.41-8.51,1.95-2.58,3.17-5.96,4.36-8.93.72-1.79,2.75-5.9.97-7.65-2.82-2.78-6.04,5.27-7.64,10.31-.87-2.5-1.7-5-2.47-7.52,2.5-2.17,4.43-5.19,6.06-8.01,1.35-2.35,3.08-5.67,1.7-8.35-.27-.52-1.05-.73-1.54-.4-1.97,1.31-3.08,3.27-4.17,5.32-1.15,2.15-2.44,4.2-3.49,6.38-.24-.88-.52-1.76-.75-2.65-.01-.06-.07-.08-.09-.12-.08-4-.2-8.11-1.74-11.84C11.4,4.04,10.15.48,7.93.04c-2.7-.53-2.11,4.23-1.8,5.53.52,2.21,1.83,4.3,2.95,6.24,1.42,2.46,2.55,5.05,3.84,7.57.1.97.23,1.93.41,2.88-3.08-3.67-7.83-8.78-12.54-8-.45.08-.83.61-.8,1.06.21,3.44,3.68,5.6,6.3,7.3,2,1.29,5.45,4.43,8.14,4.23.8,2.8,1.79,5.55,2.78,8.29-1.56-1.14-3.53-2-4.98-2.95-2.07-1.36-4.79-3.31-7.4-2.58-.66.18-.94.82-.83,1.46.47,2.67,3.8,4.35,5.93,5.5,2.61,1.41,5.97,3.17,9,3.29,1.03,2.81,2.08,5.61,3.18,8.38-4.57-2.75-12.09-6.68-12.74-3.16-.46,2.45,3.84,3.65,5.46,4.33,2.04.85,4.11,1.64,6.21,2.33.84.28,1.87.76,2.85.83.54,1.28,1.09,2.55,1.66,3.82.86,1.88,1.77,3.7,2.66,5.54-.54-.3-1.11-.56-1.63-.81-1.83-.89-3.71-1.7-5.65-2.32-1.47-.47-6.38-1.72-4.81,1.57,1.05,2.2,4.82,3.26,6.87,4.01,1.78.65,4.88,1.87,7.06,1.36,1.5,2.98,3.06,5.91,4.68,8.8-3.9-2.1-10.86-5.31-10.86-1.23,0,1.94,3.24,2.74,4.62,3.2,2.66.88,5.44,1.4,8.15,2.05.17.19.39.33.63.39,3.36,5.68,6.98,11.23,10.99,16.68.39.53,1.17.09.89-.52Z"/>
        <path class="cls-1" d="m47.83,95.2c2.41-5.24,6.15-9.72,8.99-14.72.03-.06.07-.13.1-.19-.83-4-4.08-9.25-2.65-13.31.2-.57.91-.99,1.47-.6,2.54,1.74,3.42,5.79,3.65,9.27,1.06-2.09,2.07-4.21,3.07-6.33-.06-.06-.12-.12-.16-.21-1.68-3.47-4.53-6.96-4.2-11.02.04-.48.42-1.05.98-.98,2.03.27,3.01,2.58,3.76,4.22.57,1.23,1.13,2.59,1.51,3.98.23-.5.47-1,.71-1.5.86-1.84,1.71-3.71,2.54-5.58,0-.01-.02-.02-.02-.03-2.18-3.76-4.2-8.37-4.04-12.78.02-.5.44-1.03.99-.99,2.23.18,2.96,2.88,3.49,4.67.43,1.47,1.03,3.36,1.3,5.18,1.03-2.43,2-4.89,2.95-7.37-1.68-2.23-2.74-5.16-3.77-7.73-.62-1.55-2.38-5.1-.84-6.62,2.44-2.4,5.23,4.56,6.61,8.92.75-2.16,1.47-4.33,2.14-6.51-2.16-1.88-3.83-4.49-5.24-6.93-1.17-2.03-2.66-4.91-1.47-7.23.23-.45.91-.63,1.33-.35,1.7,1.13,2.66,2.83,3.61,4.6.99,1.86,2.11,3.64,3.02,5.52.21-.76.45-1.53.65-2.29.01-.05.06-.07.08-.11.07-3.46.17-7.02,1.51-10.24.63-1.53,1.71-4.62,3.63-4.99,2.33-.46,1.82,3.66,1.56,4.78-.45,1.91-1.58,3.72-2.55,5.4-1.23,2.13-2.21,4.37-3.33,6.55-.09.84-.2,1.67-.35,2.49,2.66-3.17,6.78-7.59,10.85-6.92.39.07.72.53.7.91-.18,2.98-3.19,4.85-5.45,6.31-1.73,1.12-4.72,3.83-7.04,3.66-.69,2.42-1.55,4.8-2.41,7.17,1.35-.99,3.06-1.73,4.31-2.55,1.79-1.18,4.14-2.86,6.4-2.24.57.16.81.71.72,1.26-.41,2.31-3.29,3.76-5.13,4.76-2.26,1.22-5.16,2.74-7.78,2.85-.89,2.43-1.8,4.85-2.75,7.25,3.96-2.38,10.46-5.78,11.03-2.73.4,2.12-3.32,3.16-4.72,3.74-1.77.74-3.56,1.42-5.38,2.02-.72.24-1.62.65-2.47.72-.47,1.1-.94,2.21-1.44,3.3-.74,1.63-1.53,3.2-2.3,4.8.47-.26.96-.48,1.41-.7,1.59-.77,3.21-1.47,4.89-2.01,1.27-.41,5.52-1.48,4.17,1.36-.9,1.9-4.17,2.82-5.94,3.47-1.54.56-4.22,1.62-6.11,1.18-1.3,2.58-2.65,5.11-4.05,7.61,3.37-1.81,9.4-4.59,9.4-1.06,0,1.68-2.8,2.37-4,2.77-2.3.76-4.71,1.21-7.05,1.77-.15.16-.34.28-.55.34-2.91,4.92-6.04,9.72-9.51,14.43-.34.46-1.01.08-.77-.45Z"/>
      </g>
      <g>
        <path class="cls-1" d="m89.44,54.52c-.67,0-1.22-.21-1.66-.64-.44-.43-.66-.95-.66-1.57s.22-1.18.66-1.61c.44-.43,1-.64,1.66-.64s1.22.21,1.66.63c.44.42.66.94.66,1.56s-.21,1.19-.64,1.63c-.43.44-.99.66-1.68.66Zm-1.72,22.6v-18.95h3.43v18.95h-3.43Z"/>
        <path class="cls-1" d="m97.7,77.12v-26.53h3.43v26.53h-3.43Z"/>
        <path class="cls-1" d="m115.5,77.34c-1.84,0-3.47-.4-4.92-1.22-1.44-.81-2.58-1.94-3.41-3.4-.83-1.45-1.25-3.15-1.25-5.08s.42-3.62,1.25-5.06c.83-1.44,1.97-2.57,3.41-3.38,1.44-.81,3.08-1.22,4.92-1.22,1.6,0,3.04.36,4.33,1.07,1.29.71,2.32,1.79,3.09,3.22.77,1.43,1.16,3.22,1.16,5.36s-.38,3.93-1.13,5.36c-.75,1.43-1.77,2.51-3.06,3.24-1.29.73-2.75,1.09-4.4,1.09Zm.29-3c1.19,0,2.27-.27,3.24-.82.97-.55,1.73-1.33,2.29-2.34.56-1.01.84-2.19.84-3.52s-.28-2.53-.84-3.52c-.56-.99-1.32-1.76-2.29-2.31-.97-.55-2.04-.82-3.24-.82s-2.3.27-3.25.82c-.95.55-1.72,1.32-2.29,2.31-.57.99-.86,2.16-.86,3.52s.29,2.51.86,3.52c.57,1.01,1.33,1.79,2.29,2.34.95.55,2.04.82,3.25.82Zm6.47,2.79v-5.11l.21-4.4-.36-4.4v-12.62h3.43v26.53h-3.29Z"/>
        <path class="cls-1" d="m165.38,57.99c1.53,0,2.87.3,4.04.89,1.17.6,2.08,1.5,2.74,2.72.66,1.22.98,2.75.98,4.61v10.91h-3.43v-10.51c0-1.83-.43-3.22-1.29-4.15s-2.06-1.39-3.61-1.39c-1.14,0-2.15.24-3,.71-.86.48-1.52,1.18-1.98,2.11s-.7,2.09-.7,3.47v9.76h-3.43v-10.51c0-1.83-.42-3.22-1.27-4.15s-2.06-1.39-3.63-1.39c-1.12,0-2.11.24-2.97.71-.86.48-1.53,1.18-2,2.11-.48.93-.72,2.09-.72,3.47v9.76h-3.43v-18.95h3.29v5.04l-.54-1.29c.6-1.24,1.51-2.2,2.75-2.9,1.24-.69,2.68-1.04,4.33-1.04,1.81,0,3.37.45,4.68,1.34s2.17,2.25,2.57,4.06l-1.39-.57c.57-1.45,1.57-2.62,3-3.5,1.43-.88,3.1-1.32,5.01-1.32Z"/>
        <path class="cls-1" d="m185.02,77.34c-1.41,0-2.64-.24-3.7-.71-1.06-.48-1.88-1.14-2.45-1.98s-.86-1.81-.86-2.88.24-1.95.73-2.79c.49-.83,1.29-1.5,2.4-2,1.11-.5,2.6-.75,4.49-.75h6.01v2.47h-5.86c-1.72,0-2.87.29-3.47.86-.6.57-.89,1.26-.89,2.07,0,.93.37,1.67,1.11,2.23.74.56,1.76.84,3.08.84s2.41-.29,3.38-.86c.97-.57,1.66-1.41,2.09-2.5l.68,2.36c-.45,1.12-1.25,2.01-2.4,2.66-1.14.66-2.59.98-4.33.98Zm6.22-.21v-4l-.18-.75v-6.83c0-1.45-.42-2.58-1.27-3.38-.85-.8-2.12-1.2-3.81-1.2-1.12,0-2.22.19-3.29.55-1.07.37-1.98.86-2.72,1.48l-1.43-2.57c.98-.79,2.15-1.39,3.52-1.81,1.37-.42,2.81-.63,4.31-.63,2.6,0,4.6.63,6.01,1.9,1.41,1.26,2.11,3.19,2.11,5.79v11.44h-3.25Z"/>
        <path class="cls-1" d="m208.69,77.34c-1.84,0-3.47-.4-4.92-1.22-1.44-.81-2.58-1.94-3.41-3.4-.83-1.45-1.25-3.15-1.25-5.08s.42-3.62,1.25-5.06c.83-1.44,1.97-2.57,3.41-3.38,1.44-.81,3.08-1.22,4.92-1.22,1.6,0,3.04.36,4.33,1.07,1.29.71,2.32,1.79,3.09,3.22.77,1.43,1.16,3.22,1.16,5.36s-.38,3.93-1.13,5.36c-.75,1.43-1.77,2.51-3.06,3.24-1.29.73-2.75,1.09-4.4,1.09Zm.29-3c1.19,0,2.27-.27,3.24-.82.97-.55,1.73-1.33,2.29-2.34.56-1.01.84-2.19.84-3.52s-.28-2.53-.84-3.52c-.56-.99-1.32-1.76-2.29-2.31-.97-.55-2.04-.82-3.24-.82s-2.3.27-3.25.82c-.95.55-1.72,1.32-2.29,2.31-.57.99-.86,2.16-.86,3.52s.29,2.51.86,3.52c.57,1.01,1.33,1.79,2.29,2.34.95.55,2.04.82,3.25.82Zm6.47,2.79v-5.11l.21-4.4-.36-4.4v-12.62h3.43v26.53h-3.29Z"/>
      </g>
    </g>
  </g>
</svg>