<svg width="82" height="83" viewBox="0 0 82 83" fill="none" xmlns="http://www.w3.org/2000/svg">
<path d="M82 0H0V83H82V0Z" fill="#376130"/>
<path d="M40.5006 10C30.4856 10 22.2781 18.183 22.2781 28.1704C22.2781 32.0402 23.5142 35.6368 25.6059 38.5927L38.2766 60.4976C40.051 62.8159 41.2307 62.3755 42.7062 60.3751L56.6823 36.5917C56.964 36.0809 57.1857 35.537 57.3787 34.9814C58.2655 32.8202 58.7216 30.5065 58.7213 28.1704C58.7219 18.183 50.5168 10 40.5006 10ZM40.5006 18.5137C45.8943 18.5137 50.183 22.7927 50.183 28.1704C50.183 33.5482 45.8943 37.8253 40.5006 37.8253C35.1076 37.8253 30.817 33.5488 30.817 28.1704C30.817 22.7927 35.1076 18.5144 40.5006 18.5144" fill="white"/>
<path d="M52.0842 39.9561L52.0548 40.0333C52.064 40.01 52.0713 39.9862 52.0805 39.9629L52.0842 39.9561ZM30.7037 52.2974C22.0515 53.52 16 56.4446 16 60.7499C16 66.5491 26.1111 71.25 40.5 71.25C54.8889 71.25 65 66.5491 65 60.7499C65 56.4446 58.9491 53.52 50.2976 52.2974L49.0989 54.3383C55.6196 55.2429 60.1 57.1441 60.1 59.3503C60.1 62.4435 51.3247 64.9504 40.5 64.9504C29.6753 64.9504 20.9 62.4435 20.9 59.3503C20.8994 57.1515 25.3504 55.2521 31.8913 54.3438C31.4963 53.6614 31.0994 52.9803 30.7037 52.2974Z" fill="white"/>
</svg>
