<svg width="82" height="83" viewBox="0 0 82 83" fill="none" xmlns="http://www.w3.org/2000/svg">
<path d="M82 0H0V83H82V0Z" fill="#376130"/>
<path d="M67.4051 25.5017L55.1879 13.2818C54.7816 12.8754 54.2993 12.553 53.7684 12.3331C53.2376 12.1132 52.6686 12 52.094 12C51.5193 12 50.9504 12.1132 50.4195 12.3331C49.8886 12.553 49.4063 12.8754 49 13.2818L15.2824 47.0021C14.8744 47.4069 14.5509 47.8887 14.3308 48.4196C14.1106 48.9505 13.9982 49.5199 14 50.0947V62.3146C14 63.4749 14.461 64.5877 15.2814 65.4082C16.1019 66.2286 17.2147 66.6896 18.375 66.6896H30.5949C31.1697 66.6914 31.7391 66.579 32.27 66.3588C32.8009 66.1387 33.2827 65.8152 33.6875 65.4072L67.4051 31.6896C67.8115 31.2833 68.1338 30.801 68.3537 30.2701C68.5737 29.7392 68.6869 29.1702 68.6869 28.5956C68.6869 28.021 68.5737 27.452 68.3537 26.9212C68.1338 26.3903 67.8115 25.908 67.4051 25.5017ZM19.2801 49.1896L42.4375 26.0322L47.0012 30.5958L23.8438 53.7505L19.2801 49.1896ZM18.375 54.4697L26.2199 62.3146H18.375V54.4697ZM31.5 61.4095L26.9363 56.8458L50.0938 33.6884L54.6574 38.2521L31.5 61.4095ZM57.75 35.1595L45.5301 22.9396L52.0926 16.3771L64.3125 28.5943L57.75 35.1595Z" fill="#F8F8F8"/>
</svg>
