<svg width="13" height="14" viewBox="0 0 13 14" fill="none" xmlns="http://www.w3.org/2000/svg">
<path d="M5.63647 0.516104C2.52836 0.516104 0 3.04446 0 6.15258C0 9.26069 2.52836 11.789 5.63647 11.789C6.58662 11.789 7.52066 11.5636 8.30977 11.1288C8.37298 11.2048 8.44306 11.2749 8.51912 11.3381L10.1295 12.9486C10.2782 13.1159 10.4596 13.251 10.6624 13.3457C10.8652 13.4405 11.0853 13.4927 11.309 13.4993C11.5328 13.5059 11.7555 13.4667 11.9636 13.384C12.1716 13.3014 12.3606 13.1772 12.5189 13.0189C12.6772 12.8606 12.8014 12.6716 12.884 12.4636C12.9667 12.2555 13.0059 12.0328 12.9993 11.809C12.9927 11.5853 12.9405 11.3652 12.8457 11.1624C12.751 10.9596 12.6159 10.7782 12.4486 10.6295L10.8381 9.01912C10.7597 8.94065 10.6733 8.87049 10.5805 8.80977C11.0153 8.02066 11.289 7.10272 11.289 6.13647C11.289 3.02836 8.76069 0.5 5.65258 0.5L5.63647 0.516104ZM5.63647 2.12652C7.87496 2.12652 9.66252 3.91409 9.66252 6.15258C9.66252 7.21545 9.27602 8.19781 8.59965 8.9225C8.58354 8.9386 8.56744 8.95471 8.55133 8.97081C8.47527 9.03402 8.40519 9.1041 8.34198 9.18017C7.63339 9.82434 6.66714 10.1947 5.62037 10.1947C3.38188 10.1947 1.59432 8.40716 1.59432 6.16868C1.59432 3.9302 3.38188 2.14263 5.62037 2.14263L5.63647 2.12652Z" fill="#E9ACA7"/>
</svg>
